<?xml version="1.0" encoding="UTF-8"?>
<!DOCTYPE svg PUBLIC "-//W3C//DTD SVG 1.1//EN" "http://www.w3.org/Graphics/SVG/1.1/DTD/svg11.dtd">
<svg xmlns="http://www.w3.org/2000/svg" version="1.1" width="512px" height="512px" style="shape-rendering:geometricPrecision; text-rendering:geometricPrecision; image-rendering:optimizeQuality; fill-rule:evenodd; clip-rule:evenodd" xmlns:xlink="http://www.w3.org/1999/xlink">
<g><path style="opacity:0.995" fill="#3a484a" d="M 101.5,-0.5 C 204.167,-0.5 306.833,-0.5 409.5,-0.5C 430.94,4.77105 444.774,18.1044 451,39.5C 452.157,111.47 452.657,183.47 452.5,255.5C 452.657,327.53 452.157,399.53 451,471.5C 444.774,492.896 430.94,506.229 409.5,511.5C 306.833,511.5 204.167,511.5 101.5,511.5C 80.0595,506.229 66.2262,492.896 60,471.5C 58.8428,399.53 58.3428,327.53 58.5,255.5C 58.3428,183.47 58.8428,111.47 60,39.5C 66.2262,18.1044 80.0595,4.77105 101.5,-0.5 Z"/></g>
<g><path style="opacity:1" fill="#0aaa92" d="M 137.5,40.5 C 134.819,42.6877 132.652,45.3544 131,48.5C 130.333,87.8333 130.333,127.167 131,166.5C 131.883,169.102 133.383,171.269 135.5,173C 224.085,174.495 312.752,174.995 401.5,174.5C 304.001,175.666 206.334,175.832 108.5,175C 104.333,173.5 101.5,170.667 100,166.5C 99.3333,127.167 99.3333,87.8333 100,48.5C 101.105,45.0629 103.272,42.5629 106.5,41C 116.828,40.5002 127.161,40.3335 137.5,40.5 Z"/></g>
<g><path style="opacity:1" fill="#2fc7b3" d="M 137.5,40.5 C 226.891,40.0077 316.224,40.5077 405.5,42C 408.135,43.9605 409.969,46.4605 411,49.5C 411.667,88.1667 411.667,126.833 411,165.5C 409.904,170.765 406.737,173.765 401.5,174.5C 312.752,174.995 224.085,174.495 135.5,173C 133.383,171.269 131.883,169.102 131,166.5C 130.333,127.167 130.333,87.8333 131,48.5C 132.652,45.3544 134.819,42.6877 137.5,40.5 Z"/></g>
<g><path style="opacity:1" fill="#3a4c4d" d="M 171.5,90.5 C 176.152,89.984 179.652,91.6507 182,95.5C 182.667,101.833 182.667,108.167 182,114.5C 180.305,119.599 176.805,121.432 171.5,120C 169.622,118.457 168.122,116.624 167,114.5C 166.333,108.167 166.333,101.833 167,95.5C 168.366,93.6383 169.866,91.9717 171.5,90.5 Z"/></g>
<g><path style="opacity:1" fill="#3a4c4d" d="M 333.5,90.5 C 338.421,90.0429 341.921,92.0429 344,96.5C 344.667,102.5 344.667,108.5 344,114.5C 341.265,120.122 337.099,121.622 331.5,119C 330.107,117.829 329.273,116.329 329,114.5C 328.333,108.167 328.333,101.833 329,95.5C 330.025,93.313 331.525,91.6464 333.5,90.5 Z"/></g>
<g><path style="opacity:1" fill="#3a4a4c" d="M 231.5,104.5 C 234.187,104.336 236.854,104.503 239.5,105C 246.009,112.555 254.009,114.555 263.5,111C 266.732,109.77 269.399,107.77 271.5,105C 280.388,103.221 283.888,106.721 282,115.5C 276.403,122.886 268.903,127.053 259.5,128C 247.97,129.268 238.137,125.768 230,117.5C 226.513,112.754 227.013,108.42 231.5,104.5 Z"/></g>
<g><path style="opacity:1" fill="#b5b4b5" d="M 153.5,212.5 C 126.639,207.861 115.639,219.028 120.5,246C 115.47,272.467 126.137,283.633 152.5,279.5C 139.673,280.66 126.673,280.827 113.5,280C 106.333,278.167 101.833,273.667 100,266.5C 99.3333,252.833 99.3333,239.167 100,225.5C 101.833,218.333 106.333,213.833 113.5,212C 127.006,211.173 140.34,211.34 153.5,212.5 Z"/></g>
<g><path style="opacity:1" fill="#d3d1d2" d="M 153.5,212.5 C 159.922,213.751 164.422,217.418 167,223.5C 167.167,230.833 167.333,238.167 167.5,245.5C 167.621,253.906 167.121,262.239 166,270.5C 163.229,276.106 158.729,279.106 152.5,279.5C 126.137,283.633 115.47,272.467 120.5,246C 115.639,219.028 126.639,207.861 153.5,212.5 Z"/></g>
<g><path style="opacity:1" fill="#b6b5b6" d="M 274.5,212.5 C 248.332,208.336 237.665,219.336 242.5,245.5C 237.185,272.181 247.852,283.514 274.5,279.5C 261.673,280.66 248.673,280.827 235.5,280C 228.738,278.237 224.238,274.07 222,267.5C 221.333,253.167 221.333,238.833 222,224.5C 224.238,217.93 228.738,213.763 235.5,212C 248.673,211.173 261.673,211.34 274.5,212.5 Z"/></g>
<g><path style="opacity:1" fill="#d3d1d2" d="M 274.5,212.5 C 281.865,213.359 286.698,217.359 289,224.5C 289.667,238.833 289.667,253.167 289,267.5C 286.698,274.641 281.865,278.641 274.5,279.5C 247.852,283.514 237.185,272.181 242.5,245.5C 237.665,219.336 248.332,208.336 274.5,212.5 Z"/></g>
<g><path style="opacity:1" fill="#e7b922" d="M 357.5,212.5 C 363.509,212.334 369.509,212.501 375.5,213C 371.052,215.114 367.552,218.281 365,222.5C 363.883,230.26 363.383,238.093 363.5,246C 363.667,252.833 363.833,259.667 364,266.5C 366.106,272.272 369.939,276.438 375.5,279C 369.509,279.499 363.509,279.666 357.5,279.5C 351.086,278.259 346.586,274.592 344,268.5C 343.333,253.5 343.333,238.5 344,223.5C 346.586,217.408 351.086,213.741 357.5,212.5 Z"/></g>
<g><path style="opacity:1" fill="#fadf7e" d="M 357.5,212.5 C 370.327,211.34 383.327,211.173 396.5,212C 403.598,214.099 408.432,218.599 411,225.5C 411.667,238.833 411.667,252.167 411,265.5C 408.833,273 404,277.833 396.5,280C 383.327,280.827 370.327,280.66 357.5,279.5C 363.509,279.666 369.509,279.499 375.5,279C 369.939,276.438 366.106,272.272 364,266.5C 363.833,259.667 363.667,252.833 363.5,246C 363.383,238.093 363.883,230.26 365,222.5C 367.552,218.281 371.052,215.114 375.5,213C 369.509,212.501 363.509,212.334 357.5,212.5 Z"/></g>
<g><path style="opacity:1" fill="#b8b6b7" d="M 132.5,309.5 C 126.852,311.65 123.019,315.65 121,321.5C 120.333,335.833 120.333,350.167 121,364.5C 122.769,369.935 126.269,373.768 131.5,376C 139.159,376.5 146.826,376.666 154.5,376.5C 141.006,377.661 127.34,377.827 113.5,377C 106.333,375.167 101.833,370.667 100,363.5C 99.3333,349.833 99.3333,336.167 100,322.5C 101.892,316.551 105.725,312.384 111.5,310C 118.492,309.5 125.492,309.334 132.5,309.5 Z"/></g>
<g><path style="opacity:1" fill="#d3d1d2" d="M 132.5,309.5 C 141.235,309.124 149.902,309.624 158.5,311C 162.388,313.222 165.221,316.388 167,320.5C 167.667,335.167 167.667,349.833 167,364.5C 164.947,370.72 160.78,374.72 154.5,376.5C 146.826,376.666 139.159,376.5 131.5,376C 126.269,373.768 122.769,369.935 121,364.5C 120.333,350.167 120.333,335.833 121,321.5C 123.019,315.65 126.852,311.65 132.5,309.5 Z"/></g>
<g><path style="opacity:1" fill="#b9b7b8" d="M 253.5,309.5 C 248.857,311.979 245.357,315.645 243,320.5C 242.333,335.167 242.333,349.833 243,364.5C 244.689,369.525 247.856,373.359 252.5,376C 259.826,376.5 267.159,376.666 274.5,376.5C 261.34,377.66 248.006,377.827 234.5,377C 228.333,374.833 224.167,370.667 222,364.5C 221.333,350.167 221.333,335.833 222,321.5C 223.769,316.065 227.269,312.232 232.5,310C 239.492,309.5 246.492,309.334 253.5,309.5 Z"/></g>
<g><path style="opacity:1" fill="#d3d1d2" d="M 253.5,309.5 C 262.25,309.09 270.916,309.59 279.5,311C 284.147,313.106 287.314,316.606 289,321.5C 289.667,335.833 289.667,350.167 289,364.5C 286.685,371.656 281.852,375.656 274.5,376.5C 267.159,376.666 259.826,376.5 252.5,376C 247.856,373.359 244.689,369.525 243,364.5C 242.333,349.833 242.333,335.167 243,320.5C 245.357,315.645 248.857,311.979 253.5,309.5 Z"/></g>
<g><path style="opacity:1" fill="#05ab92" d="M 375.5,309.5 C 370.106,312.397 366.273,316.73 364,322.5C 363.333,335.833 363.333,349.167 364,362.5C 365.23,368.805 368.73,373.305 374.5,376C 382.159,376.5 389.826,376.666 397.5,376.5C 384.006,377.661 370.34,377.827 356.5,377C 348.895,375.062 344.395,370.228 343,362.5C 342.333,349.5 342.333,336.5 343,323.5C 344.675,317.159 348.508,312.659 354.5,310C 361.492,309.5 368.492,309.334 375.5,309.5 Z"/></g>
<g><path style="opacity:1" fill="#2ec6b2" d="M 375.5,309.5 C 383.507,309.334 391.507,309.5 399.5,310C 405.061,312.562 408.894,316.728 411,322.5C 411.667,335.833 411.667,349.167 411,362.5C 409.688,370.311 405.188,374.978 397.5,376.5C 389.826,376.666 382.159,376.5 374.5,376C 368.73,373.305 365.23,368.805 364,362.5C 363.333,349.167 363.333,335.833 364,322.5C 366.273,316.73 370.106,312.397 375.5,309.5 Z"/></g>
<g><path style="opacity:1" fill="#b9b7b8" d="M 132.5,406.5 C 127.524,409.311 123.691,413.311 121,418.5C 120.333,432.833 120.333,447.167 121,461.5C 122.689,466.525 125.856,470.359 130.5,473C 138.493,473.5 146.493,473.666 154.5,473.5C 140.673,474.661 126.673,474.827 112.5,474C 105.93,471.762 101.763,467.262 100,460.5C 99.0505,445.765 99.3838,431.098 101,416.5C 103.552,412.281 107.052,409.114 111.5,407C 118.492,406.5 125.492,406.334 132.5,406.5 Z"/></g>
<g><path style="opacity:1" fill="#d3d1d2" d="M 132.5,406.5 C 139.841,406.334 147.174,406.5 154.5,407C 160.365,408.511 164.532,412.011 167,417.5C 167.667,432.167 167.667,446.833 167,461.5C 165.57,468.431 161.404,472.431 154.5,473.5C 146.493,473.666 138.493,473.5 130.5,473C 125.856,470.359 122.689,466.525 121,461.5C 120.333,447.167 120.333,432.833 121,418.5C 123.691,413.311 127.524,409.311 132.5,406.5 Z"/></g>
<g><path style="opacity:1" fill="#b9b7b8" d="M 254.5,406.5 C 249.246,408.586 245.412,412.252 243,417.5C 242.333,432.167 242.333,446.833 243,461.5C 243.996,467.159 247.162,470.993 252.5,473C 260.493,473.5 268.493,473.666 276.5,473.5C 262.339,474.661 248.006,474.827 233.5,474C 227.269,472.037 223.436,467.87 222,461.5C 221.333,447.167 221.333,432.833 222,418.5C 223.833,412.667 227.667,408.833 233.5,407C 240.492,406.5 247.492,406.334 254.5,406.5 Z"/></g>
<g><path style="opacity:1" fill="#d3d1d2" d="M 254.5,406.5 C 262.903,406.13 271.236,406.63 279.5,408C 283.719,410.552 286.886,414.052 289,418.5C 289.667,432.833 289.667,447.167 289,461.5C 286.921,467.747 282.754,471.747 276.5,473.5C 268.493,473.666 260.493,473.5 252.5,473C 247.162,470.993 243.996,467.159 243,461.5C 242.333,446.833 242.333,432.167 243,417.5C 245.412,412.252 249.246,408.586 254.5,406.5 Z"/></g>
<g><path style="opacity:1" fill="#bf344a" d="M 377.5,406.5 C 370.976,408.52 366.476,412.853 364,419.5C 363.068,434.222 363.401,448.888 365,463.5C 367.412,468.748 371.246,472.414 376.5,474.5C 349.046,478.878 338.046,467.378 343.5,440C 338.731,412.603 350.064,401.436 377.5,406.5 Z"/></g>
<g><path style="opacity:1" fill="#da5963" d="M 377.5,406.5 C 404.224,402.057 415.557,413.224 411.5,440C 415.867,467.799 404.201,479.299 376.5,474.5C 371.246,472.414 367.412,468.748 365,463.5C 363.401,448.888 363.068,434.222 364,419.5C 366.476,412.853 370.976,408.52 377.5,406.5 Z"/></g>
</svg>
